<?xml version="1.0" encoding="utf-8"?>
<!-- Generator: Adobe Illustrator 24.0.2, SVG Export Plug-In . SVG Version: 6.00 Build 0)  -->
<svg version="1.1" id="Capa_1" xmlns="http://www.w3.org/2000/svg" xmlns:xlink="http://www.w3.org/1999/xlink" x="0px" y="0px"
	 viewBox="0 0 502.4 411" style="enable-background:new 0 0 502.4 411;" xml:space="preserve">
<g>
	<path d="M251,284.6c-43.6-0.5-78.9-35.8-78.8-79.2c0.1-43.4,35.8-78.9,79.2-78.7c43.6,0.2,78.9,35.6,78.8,79.2
		C330,249.2,294.7,284.3,251,284.6z"/>
	<path d="M165.8,102.6c0.3,11.6-6.3,18.4-15.6,17.5c-3.5-0.3-7.7-1.3-10-3.6c-11.8-11.2-23.5-22.4-34.2-34.6
		c-6.2-7.1-5-15.8,0.6-21.3c5.6-5.5,14.3-6.5,21.4-0.2c12.1,10.8,23.3,22.6,34.5,34.3C164.6,97.2,165.2,101.2,165.8,102.6z"/>
	<path d="M336.6,102.3c0.9-1.8,2.1-6.6,5.1-9.9c10-10.7,20.7-21,31.2-31.2c1.8-1.8,4.3-3,6.8-3.9c6.2-2.3,13.2-0.3,17.3,4.2
		c4.4,4.9,4.3,10.7,2.2,16.2c-1.2,3.3-3.6,6.4-6.1,9c-8.8,9.1-17.5,18.2-26.9,26.6c-3.7,3.3-8.9,5.8-13.7,6.6
		C343.2,121.4,336.4,114.5,336.6,102.3z"/>
	<path d="M165.8,308.6c-0.7,1.5-1.6,6-4.2,8.8c-10.4,11.1-21.3,21.8-32.1,32.5c-1.4,1.4-3.4,2.5-5.4,3.2c-6.2,2.1-12.3,2.7-17.5-2.5
		c-4.8-4.7-6.1-12-2.6-18.8c1.4-2.8,3.3-5.4,5.4-7.6c8.8-9,17.5-18.2,26.8-26.6c3.6-3.3,8.8-5.8,13.7-6.6
		C159.3,289.7,166,296.6,165.8,308.6z"/>
	<path d="M354.9,291c2.1,1.2,7.2,3,10.8,6.3c9.7,8.9,18.8,18.4,28,27.7c1.8,1.8,3.2,4.1,4.4,6.4c3.6,6.8,2.7,14-1.9,18.8
		c-4.7,4.8-12,5.8-18.8,2.3c-2.3-1.2-4.6-2.6-6.4-4.4c-9.4-9.2-19-18.2-27.7-27.9c-3.3-3.6-5.7-8.9-6.4-13.7
		C335.5,297.2,342.5,290.6,354.9,291z"/>
	<path d="M267,39.8c0,7.4,0.3,14.8-0.1,22.1c-0.5,10.9-7.1,17.6-16.4,17.1c-8.6-0.4-14.8-6.8-15.1-16.8c-0.4-15.3-0.4-30.5,0-45.8
		C235.8,6.5,242.4,0.1,251,0c8.5-0.1,15.3,6.4,15.9,16.1C267.3,24,267,31.9,267,39.8C267,39.8,267,39.8,267,39.8z"/>
	<path d="M84.5,221.4c-7.4,0-14.8,0.3-22.1-0.1c-10-0.5-16.4-6.5-16.8-15.1c-0.4-9.2,6.3-16,17.1-16.3c14.7-0.4,29.5-0.4,44.2,0
		c11.1,0.3,17.7,6.6,17.6,15.9c-0.1,9.3-6.6,15.2-17.9,15.6C99.3,221.6,91.9,221.4,84.5,221.4z"/>
	<path d="M416.5,221.4c-7.4,0-14.8,0.3-22.1-0.1c-9.9-0.5-16.3-6.7-16.6-15.3c-0.3-8.6,6.1-15.7,15.8-16c15.8-0.5,31.6-0.5,47.4,0
		c9.7,0.3,16,7.4,15.8,16c-0.2,8.6-6.6,14.8-16.6,15.3C432.3,221.7,424.4,221.4,416.5,221.4z"/>
	<path d="M235.4,370.6c0-7.4-0.3-14.7,0.1-22.1c0.5-10,6.7-16.2,15.5-16.4c8.7-0.1,15.6,6.2,15.9,15.9c0.5,15.8,0.5,31.6,0,47.3
		c-0.3,9.6-7.6,16-16.2,15.6c-8.6-0.4-14.7-6.8-15.2-16.7C235.1,386.4,235.4,378.5,235.4,370.6z"/>
</g>
</svg>
